<svg xmlns="http://www.w3.org/2000/svg" viewBox="0 0 1440 320"><path fill="#60a5fa" fill-opacity="1" d="M0,224L14.1,213.3C28.2,203,56,181,85,181.3C112.9,181,141,203,169,197.3C197.6,192,226,160,254,122.7C282.4,85,311,43,339,69.3C367.1,96,395,192,424,197.3C451.8,203,480,117,508,85.3C536.5,53,565,75,593,106.7C621.2,139,649,181,678,170.7C705.9,160,734,96,762,90.7C790.6,85,819,139,847,144C875.3,149,904,107,932,96C960,85,988,107,1016,117.3C1044.7,128,1073,128,1101,154.7C1129.4,181,1158,235,1186,229.3C1214.1,224,1242,160,1271,122.7C1298.8,85,1327,75,1355,101.3C1383.5,128,1412,192,1426,224L1440,256L1440,0L1425.9,0C1411.8,0,1384,0,1355,0C1327.1,0,1299,0,1271,0C1242.4,0,1214,0,1186,0C1157.6,0,1129,0,1101,0C1072.9,0,1045,0,1016,0C988.2,0,960,0,932,0C903.5,0,875,0,847,0C818.8,0,791,0,762,0C734.1,0,706,0,678,0C649.4,0,621,0,593,0C564.7,0,536,0,508,0C480,0,452,0,424,0C395.3,0,367,0,339,0C310.6,0,282,0,254,0C225.9,0,198,0,169,0C141.2,0,113,0,85,0C56.5,0,28,0,14,0L0,0Z"></path></svg>